:SAMPLES-PER-SECOND 30
:FULLY-SPECIFIED
:DEGREES
83
root  34.83884015 36.57717066 -14.36578195 10.20625305 -4.257193089 3.150856733
lowerback  -9.514719963 0.247808978 -0.6462036371
upperback  -3.405859947 0.9001370072 -3.721270084
thorax  1.849699974 0.6153550148 -3.389640093
lowerneck  -12.39770031 -7.511539936 -5.146130085
upperneck  12.04459953 -10.21799946 7.47672987
head  6.350579739 -4.547578335 2.243967772
lclavicle  0 -4.497500157e-015 -2.743230041e-014
lhumerus  -47.47320175 31.67899895 62.4659996
lradius  -0.01892365888 -6.507048965e-006 29.17919731
lwrist  3.192251654e-007 -3.790274832e-007 -29.68390083
lhand  -3.520283685e-031 -36.96620178 -10.61989975
lfingers  90 7.125020027 -90
lthumb  94.83532715 -25.454422 101.134819
rclavicle  0 -4.497500157e-015 -2.743230041e-014
rhumerus  7.370808125 -18.94479752 -48.42139816
rradius  -5.16745672e-007 2.214343908e-008 92.34089661
rwrist  0.0006954420824 -0.004670973402 -177.5330048
rhand  -3.050857046e-031 3.738430023 -7.176939964
rfingers  -90 -7.125020027 -90
rthumb  -85.04466248 -8.79805851 -60.45265579
rfemur  -12.24415112 15.47032738 12.71635723
rtibia  -0.1961565614 -0.949855268 18.77637863
rfoot  0.9731618166 -21.60672379 -36.00261688
rtoes  4.162008286 19.56262207 -102.2513428
lfemur  -7.117629051 -15.7847805 -20.62688065
ltibia  4.330207825 0.219598487 11.48235989
lfoot  0.4728736877 -23.97131348 35.85699081
ltoes  -8.525744438 -18.15944862 -115.6876678
84
root  34.83881612 36.57742898 -14.36277074 10.22711754 -4.213137627 3.149094343
lowerback  -9.410070419 0.2690859735 -0.6436879039
upperback  -3.469660044 0.9295139909 -3.745340109
thorax  1.727970004 0.6314790249 -3.413949966
lowerneck  -12.30510044 -7.563010216 -5.121510029
upperneck  12.01920033 -10.28919983 7.447939873
head  6.327129841 -4.585340023 2.22796011
lclavicle  0 -4.497500157e-015 -2.743230041e-014
lhumerus  -47.58000183 31.54770088 62.44409943
lradius  -0.0204822477 -6.507048965e-006 29.20170021
lwrist  3.192251654e-007 -3.790274832e-007 -29.65029907
lhand  -3.518412566e-031 -36.95640182 -10.64379978
lfingers  90 7.125020027 -90
lthumb  94.83582306 -25.47818375 101.1264801
rclavicle  0 -4.497500157e-015 -2.743230041e-014
rhumerus  8.844091415 -19.08200073 -48.27090073
rradius  -5.16745672e-007 2.214343908e-008 91.5727005
rwrist  0.0006954420824 -0.004670973402 -177.3139954
rhand  -3.065929775e-031 3.905169964 -6.95126009
rfingers  -90 -7.125020027 -90
rthumb  -84.89297485 -9.004335403 -60.27241135
rfemur  -12.24822807 15.44533825 12.71393871
rtibia  -0.1957417279 -0.9626499414 18.76664734
rfoot  0.9598085284 -21.63459969 -36.03940964
rtoes  4.157502651 19.56305504 -102.2378998
lfemur  -7.129196644 -15.80149269 -20.61911774
ltibia  4.344917297 0.2274669707 11.45647717
lfoot  0.4746901691 -23.96319962 35.82601166
ltoes  -8.513708115 -18.1649456 -115.6490479
85
root  34.83881312 36.57766628 -14.3589996 10.23589706 -4.146120548 3.146428347
lowerback  -9.303319931 0.2796419561 -0.6093553305
upperback  -3.543100119 0.9433479905 -3.782769918
thorax  1.594859958 0.6401839852 -3.472150087
lowerneck  -12.23340034 -7.591040134 -5.105909824
upperneck  12.02729988 -10.33480072 7.475699902
head  6.321280003 -4.604529858 2.231869936
lclavicle  0 -4.497500157e-015 -2.743230041e-014
lhumerus  -47.68659973 31.42099762 62.38330078
lradius  -0.02209318802 -6.507048965e-006 29.22369957
lwrist  3.192251654e-007 -3.790274832e-007 -29.59880066
lhand  -3.516438191e-031 -36.95259857 -10.66810036
lfingers  90 7.125020027 -90
lthumb  94.83921814 -25.50214386 101.1246185
rclavicle  0 -4.497500157e-015 -2.743230041e-014
rhumerus  10.26729965 -19.16320038 -47.95949936
rradius  -5.16745672e-007 2.214343908e-008 90.71140289
rwrist  0.0006954420824 -0.004670973402 -177.2319946
rhand  -3.047898801e-031 4.234549999 -7.216599941
rfingers  -90 -7.125020027 -90
rthumb  -84.9497757 -8.794501305 -59.97179794
rfemur  -12.25910473 15.44931698 12.72645092
rtibia  -0.1953645945 -0.9276330471 18.78957939
rfoot  0.9600920677 -21.56577301 -36.06477356
rtoes  4.162433624 19.56356621 -102.2526169
lfemur  -7.041653156 -15.79295254 -20.64907455
ltibia  4.428338528 0.2749192119 11.30320644
lfoot  0.4873935878 -23.99515152 35.83763885
ltoes  -8.543223381 -18.1514492 -115.7437592
86
root  34.83881913 36.57788555 -14.35520743 10.23079014 -4.076918125 3.143917799
lowerback  -9.216549873 0.2803010643 -0.5930323005
upperback  -3.609920025 0.9446960092 -3.8004601
thorax  1.478399992 0.6423509717 -3.500780106
lowerneck  -12.1413002 -7.624440193 -5.131929874
upperneck  11.97910023 -10.37970066 7.508490086
head  6.296480179 -4.627709866 2.245150089
lclavicle  0 -4.497500157e-015 -2.743230041e-014
lhumerus  -47.80860138 31.40279961 62.3064003
lradius  -0.02382491902 -6.507048965e-006 29.21689987
lwrist  3.192251654e-007 -3.790274832e-007 -29.59860039
lhand  -3.516614401e-031 -36.91149902 -10.67179966
lfingers  90 7.125020027 -90
lthumb  94.82076263 -25.50724602 101.0810318
rclavicle  0 -4.497500157e-015 -2.743230041e-014
rhumerus  11.66040039 -19.16029739 -47.62879944
rradius  -5.16745672e-007 2.214343908e-008 89.92379761
rwrist  0.0006954420824 -0.004670973402 -177.1000061
rhand  -3.061733357e-031 3.510220051 -7.016839981
rfingers  -90 -7.125020027 -90
rthumb  -85.0175705 -8.92360878 -60.6629715
rfemur  -12.24700069 15.46519375 12.73466301
rtibia  -0.1953088939 -0.8932266831 18.80430603
rfoot  0.9442923069 -21.51131058 -36.12545776
rtoes  4.136178493 19.56414795 -102.1742783
lfemur  -6.93130827 -15.91751671 -20.69999504
ltibia  4.507350445 0.2495289743 11.16203594
lfoot  0.4681018591 -23.87288094 35.86837387
ltoes  -8.57540226 -18.13667107 -115.8470917
87
root  34.83884616 36.57808379 -14.35219171 10.23749065 -4.010706425 3.14262104
lowerback  -9.139019966 0.2890540361 -0.576944232
upperback  -3.647269964 0.955918014 -3.824929953
thorax  1.39823997 0.6487510204 -3.535109997
lowerneck  -12.12139988 -7.672870159 -5.135640144
upperneck  11.96080017 -10.44419861 7.504459858
head  6.29144001 -4.660160065 2.238440037
lclavicle  0 -4.497500157e-015 -2.743230041e-014
lhumerus  -47.86750031 31.44009972 62.21949768
lradius  -0.02560284361 -6.507048965e-006 29.17379951
lwrist  3.192251654e-007 -3.790274832e-007 -29.6692009
lhand  -3.515251585e-031 -36.94120026 -10.68400002
lfingers  90 7.125020027 -90
lthumb  94.83727264 -25.51818085 101.1138916
rclavicle  0 -4.497500157e-015 -2.743230041e-014
rhumerus  13.14860153 -19.24560165 -47.40660095
rradius  -5.16745672e-007 2.214343908e-008 88.96959686
rwrist  0.0006954420824 -0.004670973402 -177.0359955
rhand  -3.088187502e-031 3.391360044 -6.624070168
rfingers  -90 -7.125020027 -90
rthumb  -84.85067749 -9.259195328 -60.74824142
rfemur  -12.23401546 15.48045254 12.74603081
rtibia  -0.1958582997 -0.8602924943 18.79920578
rfoot  0.9429166317 -21.45221901 -36.1689949
rtoes  4.128229618 19.56479073 -102.1505661
lfemur  -6.959828377 -15.89245033 -20.67721367
ltibia  4.495429039 0.2767704129 11.17851448
lfoot  0.4581773281 -23.93273544 35.79689789
ltoes  -8.582267761 -18.13350868 -115.8691483
88
root  34.83888521 36.57826701 -14.34919252 10.24945927 -3.941516638 3.143597603
lowerback  -9.070819855 0.3050929904 -0.5266033411
upperback  -3.713700056 0.9775490165 -3.866440058
thorax  1.294399977 0.6613550186 -3.6057899
lowerneck  -11.98530006 -7.715240002 -5.210380077
upperneck  11.94219971 -10.50090027 7.578649998
head  6.274400234 -4.687709808 2.272340059
lclavicle  0 -4.497500157e-015 -2.743230041e-014
lhumerus  -47.99039841 31.38199997 62.11899948
lradius  -0.02741361782 -6.507048965e-006 29.15040016
lwrist  3.192251654e-007 -3.790274832e-007 -29.68470001
lhand  -3.510899298e-031 -36.94120026 -10.73639965
lfingers  90 7.125020027 -90
lthumb  94.8484726 -25.56959915 101.1187134
rclavicle  0 -4.497500157e-015 -2.743230041e-014
rhumerus  14.52750206 -19.29940033 -47.15370178
rradius  -5.16745672e-007 2.214343908e-008 88.01699829
rwrist  0.0006954420824 -0.004670973402 -176.9810028
rhand  -3.070083237e-031 3.665920019 -6.891389847
rfingers  -90 -7.125020027 -90
rthumb  -84.91905975 -9.042098045 -60.50128174
rfemur  -12.23504543 15.47602081 12.76836109
rtibia  -0.19729653 -0.8412011266 18.80525398
rfoot  0.9307456017 -21.42328453 -36.22313309
rtoes  4.161547184 19.56548309 -102.2499695
lfemur  -6.958055496 -15.85319424 -20.65505028
ltibia  4.519953251 0.3186369538 11.13636112
lfoot  0.4621653259 -23.99098778 35.74498367
ltoes  -8.535409927 -18.15502739 -115.7186813
